<svg width="79" height="44" viewBox="0 0 79 44" fill="none" xmlns="http://www.w3.org/2000/svg">
<path d="M13.83 36.3C12.09 36.3 10.49 36 9.03 35.4C7.57 34.8 6.3 33.96 5.22 32.88C4.16 31.8 3.33 30.53 2.73 29.07C2.15 27.61 1.86 26.01 1.86 24.27C1.86 22.55 2.15 20.96 2.73 19.5C3.33 18.04 4.16 16.77 5.22 15.69C6.3 14.61 7.57 13.77 9.03 13.17C10.49 12.57 12.09 12.27 13.83 12.27C15.55 12.27 17.14 12.57 18.6 13.17C20.06 13.77 21.33 14.61 22.41 15.69C23.49 16.77 24.32 18.04 24.9 19.5C25.5 20.96 25.8 22.55 25.8 24.27C25.8 26.01 25.5 27.61 24.9 29.07C24.32 30.53 23.49 31.8 22.41 32.88C21.33 33.96 20.06 34.8 18.6 35.4C17.14 36 15.55 36.3 13.83 36.3ZM13.83 34.08C15.21 34.08 16.49 33.84 17.67 33.36C18.85 32.86 19.87 32.17 20.73 31.29C21.61 30.39 22.29 29.35 22.77 28.17C23.25 26.97 23.49 25.67 23.49 24.27C23.49 22.89 23.25 21.61 22.77 20.43C22.29 19.23 21.61 18.19 20.73 17.31C19.87 16.41 18.85 15.72 17.67 15.24C16.49 14.74 15.21 14.49 13.83 14.49C12.43 14.49 11.14 14.74 9.96 15.24C8.78 15.72 7.75 16.41 6.87 17.31C6.01 18.19 5.34 19.23 4.86 20.43C4.38 21.61 4.14 22.89 4.14 24.27C4.14 25.67 4.38 26.97 4.86 28.17C5.34 29.35 6.01 30.39 6.87 31.29C7.75 32.17 8.78 32.86 9.96 33.36C11.14 33.84 12.43 34.08 13.83 34.08ZM31.797 36C31.477 36 31.197 35.89 30.957 35.67C30.737 35.43 30.627 35.15 30.627 34.83V13.74C30.627 13.42 30.737 13.15 30.957 12.93C31.197 12.69 31.477 12.57 31.797 12.57C32.117 12.57 32.387 12.69 32.607 12.93C32.847 13.15 32.967 13.42 32.967 13.74V23.94L43.917 12.99C44.077 12.83 44.227 12.72 44.367 12.66C44.507 12.6 44.667 12.57 44.847 12.57C45.207 12.57 45.477 12.68 45.657 12.9C45.837 13.12 45.917 13.39 45.897 13.71C45.897 14.01 45.777 14.3 45.537 14.58L37.317 22.8L45.627 34.14C45.807 34.4 45.877 34.68 45.837 34.98C45.817 35.26 45.707 35.5 45.507 35.7C45.307 35.9 45.067 36 44.787 36C44.347 36 44.017 35.83 43.797 35.49L35.637 24.45L32.967 27.15V34.83C32.967 35.15 32.847 35.43 32.607 35.67C32.387 35.89 32.117 36 31.797 36ZM48.9952 36C48.5352 36 48.2052 35.81 48.0052 35.43C47.8052 35.05 47.7852 34.68 47.9452 34.32L56.7652 13.38C56.9852 12.84 57.3652 12.57 57.9052 12.57C58.4252 12.57 58.7952 12.84 59.0152 13.38L67.8652 34.35C68.0452 34.73 68.0152 35.1 67.7752 35.46C67.5552 35.82 67.2352 36 66.8152 36C66.5752 36 66.3552 35.94 66.1552 35.82C65.9752 35.7 65.8252 35.52 65.7052 35.28L57.4552 15.27H58.3852L50.0752 35.28C49.9752 35.52 49.8252 35.7 49.6252 35.82C49.4452 35.94 49.2352 36 48.9952 36ZM50.9752 30.42L51.8752 28.41H64.0552L64.9552 30.42H50.9752ZM73.5989 36C73.1669 36 72.8189 35.88 72.5549 35.64C72.3149 35.376 72.1949 35.028 72.1949 34.596V17.712C72.1949 17.28 72.3149 16.944 72.5549 16.704C72.8189 16.44 73.1669 16.308 73.5989 16.308C74.0069 16.308 74.3309 16.44 74.5709 16.704C74.8349 16.944 74.9669 17.28 74.9669 17.712V34.596C74.9669 35.028 74.8349 35.376 74.5709 35.64C74.3309 35.88 74.0069 36 73.5989 36ZM73.5629 12.564C73.0349 12.564 72.5789 12.372 72.1949 11.988C71.8109 11.604 71.6189 11.136 71.6189 10.584C71.6189 9.984 71.8109 9.516 72.1949 9.18C72.6029 8.82 73.0709 8.64 73.5989 8.64C74.1029 8.64 74.5469 8.82 74.9309 9.18C75.3389 9.516 75.5429 9.984 75.5429 10.584C75.5429 11.136 75.3509 11.604 74.9669 11.988C74.5829 12.372 74.1149 12.564 73.5629 12.564Z" fill="#392250"/>
<path d="M10.456 28.512C9.944 28.512 9.50667 28.3307 9.144 27.968C8.78133 27.6053 8.6 27.168 8.6 26.656C8.6 26.1227 8.78133 25.6747 9.144 25.312C9.528 24.9493 9.96533 24.768 10.456 24.768C10.968 24.768 11.4053 24.96 11.768 25.344C12.1307 25.7067 12.312 26.144 12.312 26.656C12.312 27.1467 12.1307 27.584 11.768 27.968C11.4267 28.3307 10.9893 28.512 10.456 28.512ZM17.3623 28.512C16.8503 28.512 16.4129 28.3307 16.0503 27.968C15.6876 27.6053 15.5063 27.168 15.5063 26.656C15.5063 26.1227 15.6876 25.6747 16.0503 25.312C16.4343 24.9493 16.8716 24.768 17.3623 24.768C17.8743 24.768 18.3116 24.96 18.6743 25.344C19.0369 25.7067 19.2183 26.144 19.2183 26.656C19.2183 27.1467 19.0369 27.584 18.6743 27.968C18.3329 28.3307 17.8956 28.512 17.3623 28.512Z" fill="#392250"/>
</svg>
