<svg width="855" height="533" viewBox="0 0 855 533" fill="none" xmlns="http://www.w3.org/2000/svg">
<path d="M827.773 446.802C827.773 464.221 812.795 476.328 795.311 473.041L240.293 368.709C226.141 366.048 214.734 353.993 212.953 339.814L182.879 100.35C180.863 84.2988 191.768 70.8621 207.614 69.8725L792.708 33.3324C811.039 32.1875 827.774 48 827.774 66.4656L827.773 446.802Z" fill="#A994E8" fill-opacity="0.82"/>
<path d="M0 441.203C0 459.182 15.7061 473.124 33.5584 470.991L749.594 385.456C763.548 383.789 774.474 372.659 775.884 358.676L803.673 83.0089C805.454 65.3402 791.582 50 773.824 50H30C13.4314 50 0 63.4315 0 80V441.203Z" fill="#FFE499"/>
<circle cx="104" cy="107" r="10" fill="white"/>
<circle cx="133" cy="161" r="15" fill="white"/>
<circle cx="339" cy="161" r="10" fill="white"/>
<circle cx="599" cy="292" r="100" fill="white"/>
<circle cx="60" cy="137" r="10" fill="white"/>
<circle cx="452" cy="136" r="15" fill="white"/>
<path d="M603.533 260.821C612.136 256.167 622.844 258.419 628.844 266.145L646.492 288.867C649.064 292.179 652.613 294.599 656.635 295.784L684.257 303.921C693.678 306.697 699.689 315.902 698.443 325.644L694.83 353.888C694.294 358.077 695.098 362.329 697.127 366.033L710.817 391.028C715.554 399.676 713.28 410.487 705.461 416.495L682.863 433.858C679.514 436.431 677.065 439.998 675.868 444.049L667.798 471.355C665.015 480.774 655.805 486.778 646.064 485.524L617.505 481.846C613.346 481.31 609.123 482.095 605.434 484.091L580.129 497.78C571.525 502.434 560.818 500.182 554.818 492.457L537.17 469.734C534.598 466.422 531.049 464.002 527.026 462.817L499.405 454.68C489.984 451.904 483.973 442.699 485.219 432.957L488.832 404.713C489.368 400.524 488.564 396.272 486.535 392.568L472.845 367.573C468.108 358.925 470.381 348.114 478.201 342.106L500.799 324.744C504.148 322.17 506.597 318.603 507.794 314.552L515.863 287.246C518.647 277.827 527.857 271.823 537.598 273.078L566.157 276.755C570.316 277.291 574.539 276.506 578.227 274.51L603.533 260.821Z" fill="#FD912D"/>
<path d="M572 373.3C568.933 373.3 566.167 372.633 563.7 371.3C561.233 369.9 559.233 368.067 557.7 365.8C556.233 363.467 555.5 360.9 555.5 358.1C555.5 355.3 556.233 352.767 557.7 350.5C559.233 348.167 561.233 346.333 563.7 345C566.167 343.667 568.933 343 572 343C575.067 343 577.833 343.667 580.3 345C582.833 346.333 584.833 348.167 586.3 350.5C587.767 352.767 588.5 355.3 588.5 358.1C588.5 360.9 587.767 363.467 586.3 365.8C584.833 368.067 582.833 369.9 580.3 371.3C577.833 372.633 575.067 373.3 572 373.3ZM572 366.6C573.333 366.6 574.533 366.2 575.6 365.4C576.667 364.6 577.5 363.567 578.1 362.3C578.767 361.033 579.1 359.667 579.1 358.2C579.1 356.6 578.767 355.167 578.1 353.9C577.433 352.633 576.567 351.633 575.5 350.9C574.433 350.1 573.267 349.7 572 349.7C570.667 349.7 569.467 350.1 568.4 350.9C567.333 351.633 566.467 352.633 565.8 353.9C565.2 355.167 564.9 356.567 564.9 358.1C564.9 359.633 565.233 361.067 565.9 362.4C566.567 363.667 567.433 364.7 568.5 365.5C569.567 366.233 570.733 366.6 572 366.6ZM610.6 416C607.533 416 604.767 415.333 602.3 414C599.833 412.667 597.833 410.867 596.3 408.6C594.833 406.267 594.1 403.7 594.1 400.9C594.1 398.033 594.833 395.467 596.3 393.2C597.833 390.933 599.833 389.133 602.3 387.8C604.767 386.4 607.533 385.7 610.6 385.7C613.667 385.7 616.433 386.4 618.9 387.8C621.433 389.133 623.433 390.933 624.9 393.2C626.367 395.467 627.1 398 627.1 400.8C627.1 403.6 626.367 406.167 624.9 408.5C623.433 410.767 621.433 412.6 618.9 414C616.433 415.333 613.667 416 610.6 416ZM610.6 409.3C611.933 409.3 613.133 408.9 614.2 408.1C615.267 407.3 616.1 406.267 616.7 405C617.367 403.733 617.7 402.367 617.7 400.9C617.7 399.3 617.367 397.867 616.7 396.6C616.1 395.333 615.233 394.333 614.1 393.6C613.033 392.8 611.867 392.4 610.6 392.4C609.333 392.4 608.133 392.8 607 393.6C605.933 394.333 605.067 395.367 604.4 396.7C603.8 397.967 603.5 399.333 603.5 400.8C603.5 402.4 603.833 403.833 604.5 405.1C605.167 406.367 606.033 407.4 607.1 408.2C608.167 408.933 609.333 409.3 610.6 409.3ZM561.2 410.3L589.3 377.4L615.3 343.2L621.4 348.6L594 381L567.2 415.7L561.2 410.3Z" fill="white"/>
</svg>
