<svg width="14" height="14" viewBox="0 0 14 14" fill="none" xmlns="http://www.w3.org/2000/svg">
<g clip-path="url(#clip0_611_5070)">
<path d="M12.7232 2.29875C11.8249 4.53875 9.5732 7.58375 7.68904 9.09458L6.53987 10.0162C6.39404 10.1212 6.2482 10.2146 6.08487 10.2788C6.08487 10.1738 6.07904 10.0571 6.06154 9.94625C5.99737 9.45625 5.7757 9.00125 5.38487 8.61042C4.9882 8.21375 4.50404 7.98042 4.0082 7.91625C3.89154 7.91042 3.77487 7.89875 3.6582 7.91042C3.72237 7.72958 3.82154 7.56042 3.94404 7.42042L4.85404 6.27125C6.35904 4.38708 9.4157 2.12375 11.6499 1.23125C11.994 1.10292 12.3265 1.19625 12.5365 1.41208C12.7582 1.62792 12.8632 1.96042 12.7232 2.29875Z" stroke="#6D6D6D" stroke-width="1.5" stroke-linecap="round" stroke-linejoin="round"/>
<path d="M8.30691 8.44081C8.30691 6.91831 7.07024 5.68164 5.54774 5.68164M6.08441 10.2783C6.08441 10.92 5.83941 11.5325 5.37857 11.9991C5.02274 12.355 4.53857 12.6 3.96107 12.6758L2.52607 12.8333C1.74441 12.9208 1.07357 12.2558 1.16691 11.4625L1.32441 10.0275C1.46441 8.74997 2.53191 7.93331 3.66357 7.90997C3.78024 7.90414 3.90274 7.90997 4.01357 7.91581C4.50941 7.97997 4.99357 8.20747 5.39024 8.60997C5.78107 9.00081 6.00274 9.45581 6.06691 9.94581C6.07274 10.0566 6.08441 10.1675 6.08441 10.2783Z" stroke="#6D6D6D" stroke-width="1.5" stroke-linecap="round" stroke-linejoin="round"/>
</g>
<defs>
<clipPath id="clip0_611_5070">
<rect width="14" height="14" fill="white"/>
</clipPath>
</defs>
</svg>
