<svg width="468" height="54" viewBox="0 0 468 54" fill="none" xmlns="http://www.w3.org/2000/svg">
<path d="M3.36 51.096C2.744 51.096 2.188 50.968 1.692 50.712C1.204 50.448 0.82 50.084 0.54 49.62L1.368 49.116C1.568 49.452 1.836 49.716 2.172 49.908C2.508 50.092 2.896 50.184 3.336 50.184C3.92 50.184 4.372 50.04 4.692 49.752C5.02 49.464 5.184 49.08 5.184 48.6C5.184 48.296 5.116 48.028 4.98 47.796C4.844 47.556 4.648 47.372 4.392 47.244C4.136 47.108 3.824 47.04 3.456 47.04H2.58V46.188H3.468C3.756 46.188 4.004 46.128 4.212 46.008C4.428 45.88 4.592 45.712 4.704 45.504C4.824 45.288 4.884 45.048 4.884 44.784C4.884 44.504 4.82 44.26 4.692 44.052C4.564 43.836 4.38 43.668 4.14 43.548C3.908 43.428 3.628 43.368 3.3 43.368C2.884 43.368 2.52 43.46 2.208 43.644C1.896 43.82 1.652 44.064 1.476 44.376L0.684 43.836C0.956 43.388 1.312 43.036 1.752 42.78C2.192 42.516 2.724 42.384 3.348 42.384C3.868 42.384 4.32 42.476 4.704 42.66C5.088 42.844 5.388 43.104 5.604 43.44C5.82 43.776 5.928 44.176 5.928 44.64C5.928 45.056 5.824 45.44 5.616 45.792C5.416 46.136 5.116 46.396 4.716 46.572C5.212 46.708 5.596 46.968 5.868 47.352C6.14 47.736 6.276 48.184 6.276 48.696C6.276 49.2 6.148 49.632 5.892 49.992C5.644 50.352 5.3 50.628 4.86 50.82C4.428 51.004 3.928 51.096 3.36 51.096ZM7.13344 49.188C7.13344 48.788 7.24544 48.444 7.46944 48.156C7.70144 47.86 8.01744 47.632 8.41744 47.472C8.81744 47.312 9.28144 47.232 9.80944 47.232C10.0894 47.232 10.3854 47.256 10.6974 47.304C11.0094 47.344 11.2854 47.408 11.5254 47.496V47.04C11.5254 46.56 11.3814 46.184 11.0934 45.912C10.8054 45.632 10.3974 45.492 9.86944 45.492C9.52544 45.492 9.19344 45.556 8.87344 45.684C8.56144 45.804 8.22944 45.98 7.87744 46.212L7.49344 45.468C7.90144 45.188 8.30944 44.98 8.71744 44.844C9.12544 44.7 9.54944 44.628 9.98944 44.628C10.7894 44.628 11.4214 44.852 11.8854 45.3C12.3494 45.74 12.5814 46.356 12.5814 47.148V49.8C12.5814 49.928 12.6054 50.024 12.6534 50.088C12.7094 50.144 12.7974 50.176 12.9174 50.184V51C12.8134 51.016 12.7214 51.028 12.6414 51.036C12.5694 51.044 12.5094 51.048 12.4614 51.048C12.2134 51.048 12.0254 50.98 11.8974 50.844C11.7774 50.708 11.7094 50.564 11.6934 50.412L11.6694 50.016C11.3974 50.368 11.0414 50.64 10.6014 50.832C10.1614 51.024 9.72544 51.12 9.29344 51.12C8.87744 51.12 8.50544 51.036 8.17744 50.868C7.84944 50.692 7.59344 50.46 7.40944 50.172C7.22544 49.876 7.13344 49.548 7.13344 49.188ZM11.2134 49.632C11.3094 49.52 11.3854 49.408 11.4414 49.296C11.4974 49.176 11.5254 49.076 11.5254 48.996V48.216C11.2774 48.12 11.0174 48.048 10.7454 48C10.4734 47.944 10.2054 47.916 9.94144 47.916C9.40544 47.916 8.96944 48.024 8.63344 48.24C8.30544 48.448 8.14144 48.736 8.14144 49.104C8.14144 49.304 8.19344 49.5 8.29744 49.692C8.40944 49.876 8.56944 50.028 8.77744 50.148C8.99344 50.268 9.25744 50.328 9.56944 50.328C9.89744 50.328 10.2094 50.264 10.5054 50.136C10.8014 50 11.0374 49.832 11.2134 49.632ZM14.258 51V44.736H15.314V47.316H16.01L17.978 44.736H19.178L16.838 47.772L19.454 51H18.23L16.01 48.288H15.314V51H14.258ZM20.0006 49.188C20.0006 48.788 20.1126 48.444 20.3366 48.156C20.5686 47.86 20.8846 47.632 21.2846 47.472C21.6846 47.312 22.1486 47.232 22.6766 47.232C22.9566 47.232 23.2526 47.256 23.5646 47.304C23.8766 47.344 24.1526 47.408 24.3926 47.496V47.04C24.3926 46.56 24.2486 46.184 23.9606 45.912C23.6726 45.632 23.2646 45.492 22.7366 45.492C22.3926 45.492 22.0606 45.556 21.7406 45.684C21.4286 45.804 21.0966 45.98 20.7446 46.212L20.3606 45.468C20.7686 45.188 21.1766 44.98 21.5846 44.844C21.9926 44.7 22.4166 44.628 22.8566 44.628C23.6566 44.628 24.2886 44.852 24.7526 45.3C25.2166 45.74 25.4486 46.356 25.4486 47.148V49.8C25.4486 49.928 25.4726 50.024 25.5206 50.088C25.5766 50.144 25.6646 50.176 25.7846 50.184V51C25.6806 51.016 25.5886 51.028 25.5086 51.036C25.4366 51.044 25.3766 51.048 25.3286 51.048C25.0806 51.048 24.8926 50.98 24.7646 50.844C24.6446 50.708 24.5766 50.564 24.5606 50.412L24.5366 50.016C24.2646 50.368 23.9086 50.64 23.4686 50.832C23.0286 51.024 22.5926 51.12 22.1606 51.12C21.7446 51.12 21.3726 51.036 21.0446 50.868C20.7166 50.692 20.4606 50.46 20.2766 50.172C20.0926 49.876 20.0006 49.548 20.0006 49.188ZM24.0806 49.632C24.1766 49.52 24.2526 49.408 24.3086 49.296C24.3646 49.176 24.3926 49.076 24.3926 48.996V48.216C24.1446 48.12 23.8846 48.048 23.6126 48C23.3406 47.944 23.0726 47.916 22.8086 47.916C22.2726 47.916 21.8366 48.024 21.5006 48.24C21.1726 48.448 21.0086 48.736 21.0086 49.104C21.0086 49.304 21.0606 49.5 21.1646 49.692C21.2766 49.876 21.4366 50.028 21.6446 50.148C21.8606 50.268 22.1246 50.328 22.4366 50.328C22.7646 50.328 23.0766 50.264 23.3726 50.136C23.6686 50 23.9046 49.832 24.0806 49.632ZM29.0932 51.084C28.4852 51.084 27.9692 50.972 27.5452 50.748C27.1292 50.516 26.8092 50.196 26.5852 49.788L27.4492 49.404C27.5932 49.66 27.7972 49.86 28.0612 50.004C28.3332 50.148 28.6612 50.22 29.0452 50.22C29.5012 50.22 29.8612 50.12 30.1252 49.92C30.3892 49.72 30.5212 49.452 30.5212 49.116C30.5212 48.812 30.4132 48.568 30.1972 48.384C29.9892 48.192 29.6932 48.092 29.3092 48.084H28.6732V47.388H29.3452C29.5132 47.388 29.6612 47.348 29.7892 47.268C29.9252 47.18 30.0292 47.064 30.1012 46.92C30.1812 46.776 30.2212 46.616 30.2212 46.44C30.2212 46.16 30.1212 45.936 29.9212 45.768C29.7212 45.592 29.4212 45.504 29.0212 45.504C28.6932 45.504 28.4172 45.568 28.1932 45.696C27.9772 45.824 27.8012 46.016 27.6652 46.272L26.8612 45.84C27.0612 45.464 27.3492 45.172 27.7252 44.964C28.1092 44.748 28.5572 44.64 29.0692 44.64C29.4772 44.64 29.8372 44.708 30.1492 44.844C30.4692 44.972 30.7172 45.16 30.8932 45.408C31.0772 45.656 31.1692 45.956 31.1692 46.308C31.1692 46.604 31.0972 46.88 30.9532 47.136C30.8172 47.384 30.6132 47.572 30.3412 47.7C30.7172 47.812 31.0052 48.008 31.2052 48.288C31.4052 48.56 31.5052 48.884 31.5052 49.26C31.5052 49.644 31.4012 49.972 31.1932 50.244C30.9852 50.516 30.7012 50.724 30.3412 50.868C29.9812 51.012 29.5652 51.084 29.0932 51.084ZM38.545 51.12C38.073 51.12 37.645 51.036 37.261 50.868C36.877 50.692 36.545 50.456 36.265 50.16C35.985 49.856 35.769 49.508 35.617 49.116C35.465 48.724 35.389 48.312 35.389 47.88C35.389 47.44 35.465 47.024 35.617 46.632C35.769 46.24 35.985 45.896 36.265 45.6C36.545 45.296 36.877 45.06 37.261 44.892C37.653 44.716 38.081 44.628 38.545 44.628C39.017 44.628 39.445 44.716 39.829 44.892C40.213 45.06 40.545 45.296 40.825 45.6C41.113 45.896 41.333 46.24 41.485 46.632C41.637 47.024 41.713 47.44 41.713 47.88C41.713 48.312 41.637 48.724 41.485 49.116C41.333 49.508 41.117 49.856 40.837 50.16C40.557 50.456 40.221 50.692 39.829 50.868C39.445 51.036 39.017 51.12 38.545 51.12ZM36.469 47.892C36.469 48.324 36.561 48.716 36.745 49.068C36.937 49.42 37.189 49.7 37.501 49.908C37.813 50.108 38.161 50.208 38.545 50.208C38.929 50.208 39.277 50.104 39.589 49.896C39.909 49.688 40.161 49.408 40.345 49.056C40.537 48.696 40.633 48.3 40.633 47.868C40.633 47.436 40.537 47.044 40.345 46.692C40.161 46.34 39.909 46.06 39.589 45.852C39.277 45.644 38.929 45.54 38.545 45.54C38.161 45.54 37.813 45.648 37.501 45.864C37.189 46.072 36.937 46.352 36.745 46.704C36.561 47.056 36.469 47.452 36.469 47.892ZM45.8846 53.556V51H45.6446C45.0126 51 44.4646 50.856 44.0006 50.568C43.5446 50.28 43.1926 49.9 42.9446 49.428C42.6966 48.956 42.5726 48.44 42.5726 47.88C42.5726 47.312 42.6966 46.792 42.9446 46.32C43.2006 45.848 43.5566 45.468 44.0126 45.18C44.4766 44.892 45.0206 44.748 45.6446 44.748H45.8846V42.24H46.9406V44.748H47.1926C47.8166 44.748 48.3566 44.892 48.8126 45.18C49.2766 45.468 49.6326 45.848 49.8806 46.32C50.1366 46.792 50.2646 47.312 50.2646 47.88C50.2646 48.44 50.1406 48.956 49.8926 49.428C49.6446 49.9 49.2886 50.28 48.8246 50.568C48.3686 50.856 47.8246 51 47.1926 51H46.9406V53.556H45.8846ZM45.6446 50.136H45.9326V45.612H45.6446C45.2526 45.612 44.9006 45.716 44.5886 45.924C44.2846 46.124 44.0446 46.396 43.8686 46.74C43.6926 47.084 43.6046 47.468 43.6046 47.892C43.6046 48.316 43.6886 48.7 43.8566 49.044C44.0326 49.38 44.2726 49.648 44.5766 49.848C44.8806 50.04 45.2366 50.136 45.6446 50.136ZM46.8926 50.136H47.1926C47.5926 50.136 47.9446 50.04 48.2486 49.848C48.5606 49.648 48.8006 49.38 48.9686 49.044C49.1446 48.7 49.2326 48.316 49.2326 47.892C49.2326 47.468 49.1446 47.084 48.9686 46.74C48.7926 46.396 48.5526 46.124 48.2486 45.924C47.9446 45.716 47.5926 45.612 47.1926 45.612H46.8926V50.136ZM54.2833 51.12C53.8113 51.12 53.3833 51.036 52.9993 50.868C52.6153 50.692 52.2833 50.456 52.0033 50.16C51.7233 49.856 51.5073 49.508 51.3553 49.116C51.2033 48.724 51.1273 48.312 51.1273 47.88C51.1273 47.44 51.2033 47.024 51.3553 46.632C51.5073 46.24 51.7233 45.896 52.0033 45.6C52.2833 45.296 52.6153 45.06 52.9993 44.892C53.3913 44.716 53.8193 44.628 54.2833 44.628C54.7553 44.628 55.1833 44.716 55.5673 44.892C55.9513 45.06 56.2833 45.296 56.5633 45.6C56.8513 45.896 57.0713 46.24 57.2233 46.632C57.3753 47.024 57.4513 47.44 57.4513 47.88C57.4513 48.312 57.3753 48.724 57.2233 49.116C57.0713 49.508 56.8553 49.856 56.5753 50.16C56.2953 50.456 55.9593 50.692 55.5673 50.868C55.1833 51.036 54.7553 51.12 54.2833 51.12ZM52.2073 47.892C52.2073 48.324 52.2993 48.716 52.4833 49.068C52.6753 49.42 52.9273 49.7 53.2393 49.908C53.5513 50.108 53.8993 50.208 54.2833 50.208C54.6673 50.208 55.0153 50.104 55.3273 49.896C55.6473 49.688 55.8993 49.408 56.0833 49.056C56.2753 48.696 56.3713 48.3 56.3713 47.868C56.3713 47.436 56.2753 47.044 56.0833 46.692C55.8993 46.34 55.6473 46.06 55.3273 45.852C55.0153 45.644 54.6673 45.54 54.2833 45.54C53.8993 45.54 53.5513 45.648 53.2393 45.864C52.9273 46.072 52.6753 46.352 52.4833 46.704C52.2993 47.056 52.2073 47.452 52.2073 47.892ZM62.1029 51.12C61.5909 51.12 61.1349 50.992 60.7349 50.736C60.3349 50.48 60.0189 50.156 59.7869 49.764V53.556H58.7309V44.736H59.6669V45.912C59.9149 45.528 60.2389 45.22 60.6389 44.988C61.0389 44.748 61.4749 44.628 61.9469 44.628C62.3789 44.628 62.7749 44.716 63.1349 44.892C63.4949 45.068 63.8069 45.308 64.0709 45.612C64.3349 45.916 64.5389 46.264 64.6829 46.656C64.8349 47.04 64.9109 47.444 64.9109 47.868C64.9109 48.46 64.7909 49.004 64.5509 49.5C64.3189 49.996 63.9909 50.392 63.5669 50.688C63.1429 50.976 62.6549 51.12 62.1029 51.12ZM61.7789 50.208C62.0909 50.208 62.3709 50.144 62.6189 50.016C62.8749 49.88 63.0909 49.704 63.2669 49.488C63.4509 49.264 63.5909 49.012 63.6869 48.732C63.7829 48.452 63.8309 48.164 63.8309 47.868C63.8309 47.556 63.7749 47.26 63.6629 46.98C63.5589 46.7 63.4069 46.452 63.2069 46.236C63.0149 46.02 62.7869 45.852 62.5229 45.732C62.2669 45.604 61.9869 45.54 61.6829 45.54C61.4909 45.54 61.2909 45.576 61.0829 45.648C60.8829 45.72 60.6909 45.824 60.5069 45.96C60.3229 46.088 60.1669 46.236 60.0389 46.404C59.9109 46.572 59.8269 46.752 59.7869 46.944V48.732C59.9069 49.004 60.0669 49.252 60.2669 49.476C60.4669 49.7 60.6989 49.88 60.9629 50.016C61.2269 50.144 61.4989 50.208 61.7789 50.208ZM66.1955 51V44.736H67.2875L69.6155 48.84L71.9555 44.736H73.0235V51H72.0155V46.26L69.9515 49.884H69.2795L67.2035 46.26V51H66.1955ZM74.175 51.048V50.1C74.383 50.1 74.567 50.048 74.727 49.944C74.895 49.832 75.043 49.648 75.171 49.392C75.299 49.128 75.399 48.768 75.471 48.312C75.551 47.848 75.603 47.26 75.627 46.548L75.699 44.736H79.959V51H78.903V45.672H76.635L76.611 46.644C76.579 47.5 76.507 48.212 76.395 48.78C76.283 49.348 76.127 49.796 75.927 50.124C75.727 50.452 75.479 50.688 75.183 50.832C74.895 50.976 74.559 51.048 74.175 51.048ZM84.4365 51.12C83.9645 51.12 83.5325 51.036 83.1405 50.868C82.7565 50.692 82.4205 50.456 82.1325 50.16C81.8525 49.856 81.6325 49.508 81.4725 49.116C81.3205 48.724 81.2445 48.308 81.2445 47.868C81.2445 47.276 81.3805 46.736 81.6525 46.248C81.9245 45.76 82.3005 45.368 82.7805 45.072C83.2685 44.776 83.8245 44.628 84.4485 44.628C85.0805 44.628 85.6285 44.78 86.0925 45.084C86.5645 45.38 86.9285 45.772 87.1845 46.26C87.4485 46.74 87.5805 47.26 87.5805 47.82C87.5805 47.9 87.5765 47.98 87.5685 48.06C87.5685 48.132 87.5645 48.188 87.5565 48.228H82.3605C82.3925 48.636 82.5045 49 82.6965 49.32C82.8965 49.632 83.1525 49.88 83.4645 50.064C83.7765 50.24 84.1125 50.328 84.4725 50.328C84.8565 50.328 85.2165 50.232 85.5525 50.04C85.8965 49.848 86.1325 49.596 86.2605 49.284L87.1725 49.536C87.0365 49.84 86.8325 50.112 86.5605 50.352C86.2965 50.592 85.9805 50.78 85.6125 50.916C85.2525 51.052 84.8605 51.12 84.4365 51.12ZM82.3245 47.496H86.5965C86.5645 47.088 86.4485 46.728 86.2485 46.416C86.0485 46.104 85.7925 45.86 85.4805 45.684C85.1685 45.508 84.8245 45.42 84.4485 45.42C84.0805 45.42 83.7405 45.508 83.4285 45.684C83.1165 45.86 82.8605 46.104 82.6605 46.416C82.4685 46.728 82.3565 47.088 82.3245 47.496ZM88.7423 51V44.736H89.7983V47.328H93.0623V44.736H94.1183V51H93.0623V48.264H89.7983V51H88.7423Z" fill="#9B7AFC"/>
<circle cx="48" cy="15" r="15" fill="#9B7AFC"/>
<circle cx="178" cy="15" r="15" fill="#D9D9D9"/>
<circle cx="307" cy="15" r="15" fill="#D9D9D9"/>
<circle cx="437" cy="15" r="15" fill="#D9D9D9"/>
<line x1="440.919" y1="15.9219" x2="46.9192" y2="14.9217" stroke="url(#paint0_linear_2468_1443)" stroke-width="2"/>
<defs>
<linearGradient id="paint0_linear_2468_1443" x1="113" y1="14.9996" x2="243.924" y2="13.4204" gradientUnits="userSpaceOnUse">
<stop stop-color="#9B7AFC"/>
<stop offset="0.103623" stop-color="#D9D9D9"/>
</linearGradient>
</defs>
</svg>
