<svg width="1198" height="251" viewBox="0 0 1198 251" fill="none" xmlns="http://www.w3.org/2000/svg">
<path d="M1429 89.5384C1436.45 88.7731 1427.92 72.7856 1425.96 70.6635C1402.06 44.8628 1363.1 28.2017 1325.67 20.7129C1295.76 14.7298 1265.8 8.32964 1235.27 4.86213C1192.68 0.0247852 1148.83 0.715333 1105.95 1.73369C1022.07 3.72557 942.434 23.606 869.109 57.2113C838.854 71.0772 809.671 86.783 781.118 102.886C753.529 118.446 724.691 132.002 696.805 147.102C637.283 179.331 585.585 215.193 515.499 232.299C424.391 254.536 322.302 252.135 228.579 244.917C135.463 237.747 45.2642 211.344 -43 187.146" stroke="white" stroke-linecap="round"/>
</svg>
