<svg width="12" height="12" viewBox="0 0 12 12" fill="none" xmlns="http://www.w3.org/2000/svg">
<g clip-path="url(#clip0_871_6221)">
<path d="M3 5V4C3 2.345 3.5 1 6 1C8.5 1 9 2.345 9 4V5M6 9.25C6.33152 9.25 6.64946 9.1183 6.88388 8.88388C7.1183 8.64946 7.25 8.33152 7.25 8C7.25 7.66848 7.1183 7.35054 6.88388 7.11612C6.64946 6.8817 6.33152 6.75 6 6.75C5.66848 6.75 5.35054 6.8817 5.11612 7.11612C4.8817 7.35054 4.75 7.66848 4.75 8C4.75 8.33152 4.8817 8.64946 5.11612 8.88388C5.35054 9.1183 5.66848 9.25 6 9.25Z" stroke="#6D6D6D" stroke-width="1.5" stroke-linecap="round" stroke-linejoin="round"/>
<path d="M8.5 11H3.5C1.5 11 1 10.5 1 8.5V7.5C1 5.5 1.5 5 3.5 5H8.5C10.5 5 11 5.5 11 7.5V8.5C11 10.5 10.5 11 8.5 11Z" stroke="#6D6D6D" stroke-width="1.5" stroke-linecap="round" stroke-linejoin="round"/>
</g>
<defs>
<clipPath id="clip0_871_6221">
<rect width="12" height="12" fill="white"/>
</clipPath>
</defs>
</svg>
