<svg width="44" height="20" viewBox="0 0 44 20" fill="none" xmlns="http://www.w3.org/2000/svg">
<path d="M34.558 18.909C34.252 19.0303 33.748 19.0303 33.442 18.909C30.832 17.9079 25 13.7315 25 6.65281C25 3.52809 27.241 1 30.004 1C31.642 1 33.091 1.88989 34 3.26517C34.4624 2.56325 35.0647 1.99276 35.7586 1.5994C36.4525 1.20605 37.2188 1.00077 37.996 1C40.759 1 43 3.52809 43 6.65281C43 13.7315 37.168 17.9079 34.558 18.909Z" fill="#FF0000" stroke="#FF0000" stroke-width="1.5" stroke-linecap="round" stroke-linejoin="round"/>
<path d="M10.558 18.909C10.252 19.0303 9.748 19.0303 9.442 18.909C6.832 17.9079 1 13.7315 1 6.65281C1 3.52809 3.241 1 6.004 1C7.642 1 9.091 1.88989 10 3.26517C10.4624 2.56324 11.0647 1.99276 11.7586 1.5994C12.4525 1.20605 13.2188 1.00077 13.996 1C16.759 1 19 3.52809 19 6.65281C19 13.7315 13.168 17.9079 10.558 18.909Z" stroke="#989898" stroke-width="1.5" stroke-linecap="round" stroke-linejoin="round"/>
</svg>
