<svg width="16" height="16" viewBox="0 0 16 16" fill="none" xmlns="http://www.w3.org/2000/svg">
<path d="M15.7656 14.5757C15.9158 14.7273 16 14.932 16 15.1454C16 15.3587 15.9158 15.5634 15.7656 15.715C15.6128 15.8628 15.4085 15.9454 15.196 15.9454C14.9834 15.9454 14.7791 15.8628 14.6263 15.715L8 9.07877L1.37373 15.715C1.2209 15.8628 1.01663 15.9454 0.804048 15.9454C0.591462 15.9454 0.387194 15.8628 0.234368 15.715C0.0842274 15.5634 0 15.3587 0 15.1454C0 14.932 0.0842274 14.7273 0.234368 14.5757L6.87064 7.9494L0.234368 1.32313C0.10687 1.16778 0.0417127 0.970562 0.0515713 0.769833C0.0614298 0.569104 0.145599 0.379219 0.287707 0.237111C0.429815 0.0950029 0.6197 0.0108338 0.820429 0.00097533C1.02116 -0.00888319 1.21838 0.0562737 1.37373 0.183772L8 6.82004L14.6263 0.183772C14.7816 0.0562737 14.9788 -0.00888319 15.1796 0.00097533C15.3803 0.0108338 15.5702 0.0950029 15.7123 0.237111C15.8544 0.379219 15.9386 0.569104 15.9484 0.769833C15.9583 0.970562 15.8931 1.16778 15.7656 1.32313L9.12936 7.9494L15.7656 14.5757Z" fill="black"/>
</svg>
