<svg width="20" height="20" viewBox="0 0 20 20" fill="none" xmlns="http://www.w3.org/2000/svg">
<path d="M15.163 13.4334H14.2521L13.9292 13.1221C15.0592 11.8077 15.7395 10.1012 15.7395 8.24476C15.7395 4.10535 12.3842 0.75 8.24476 0.75C4.10535 0.75 0.75 4.10535 0.75 8.24476C0.75 12.3842 4.10535 15.7395 8.24476 15.7395C10.1012 15.7395 11.8077 15.0592 13.1221 13.9292L13.4334 14.2521V15.163L19.1986 20.9167L20.9167 19.1986L15.163 13.4334ZM8.24476 13.4334C5.37369 13.4334 3.05608 11.1158 3.05608 8.24476C3.05608 5.37369 5.37369 3.05608 8.24476 3.05608C11.1158 3.05608 13.4334 5.37369 13.4334 8.24476C13.4334 11.1158 11.1158 13.4334 8.24476 13.4334Z" fill="#929292"/>
</svg>
