<svg width="18" height="18" viewBox="0 0 18 18" fill="none" xmlns="http://www.w3.org/2000/svg">
<g clip-path="url(#clip0_871_6242)">
<path d="M16.2004 7.65H9.15039V10.425H13.2754C13.2004 11.1 12.7504 12.15 11.7754 12.825C11.1754 13.275 10.2754 13.575 9.15039 13.575C7.20039 13.575 5.47539 12.3 4.87539 10.425C4.72539 9.975 4.65039 9.45 4.65039 8.925C4.65039 8.4 4.72539 7.875 4.87539 7.425C4.95039 7.275 4.95039 7.125 5.02539 7.05C5.70039 5.475 7.27539 4.35 9.15039 4.35C10.5754 4.35 11.4754 4.95 12.0754 5.475L14.1754 3.375C12.9004 2.25 11.1754 1.5 9.15039 1.5C6.22539 1.5 3.67539 3.15 2.47539 5.625C1.95039 6.675 1.65039 7.8 1.65039 9C1.65039 10.2 1.95039 11.325 2.47539 12.375C3.67539 14.85 6.22539 16.5 9.15039 16.5C11.1754 16.5 12.9004 15.825 14.1004 14.7C15.5254 13.425 16.3504 11.475 16.3504 9.15C16.3504 8.55 16.2754 8.1 16.2004 7.65V7.65Z" stroke="#6D6D6D" stroke-width="1.5" stroke-miterlimit="10" stroke-linecap="round" stroke-linejoin="round"/>
</g>
<defs>
<clipPath id="clip0_871_6242">
<rect width="18" height="18" fill="white"/>
</clipPath>
</defs>
</svg>
