<svg width="12" height="12" viewBox="0 0 12 12" fill="none" xmlns="http://www.w3.org/2000/svg">
<g clip-path="url(#clip0_871_6231)">
<path d="M7.26492 4.73492L4.73492 7.26492C4.39942 6.92942 4.21094 6.47438 4.21094 5.99992C4.21094 5.76499 4.25721 5.53235 4.34712 5.3153C4.43702 5.09826 4.5688 4.90104 4.73492 4.73492C4.90104 4.5688 5.09826 4.43702 5.3153 4.34712C5.53235 4.25721 5.76499 4.21094 5.99992 4.21094C6.47438 4.21094 6.92942 4.39942 7.26492 4.73492V4.73492Z" stroke="#6D6D6D" stroke-width="1.5" stroke-linecap="round" stroke-linejoin="round"/>
<path d="M8.90992 2.88523C8.03492 2.22523 7.03492 1.86523 5.99992 1.86523C4.23492 1.86523 2.58992 2.90523 1.44492 4.70523C0.994922 5.41023 0.994922 6.59523 1.44492 7.30023C1.83992 7.92023 2.29992 8.45523 2.79992 8.88523M4.20992 9.76523C4.77992 10.0052 5.38492 10.1352 5.99992 10.1352C7.76492 10.1352 9.40992 9.09523 10.5549 7.29523C11.0049 6.59023 11.0049 5.40523 10.5549 4.70023C10.3899 4.44023 10.2099 4.19523 10.0249 3.96523" stroke="#6D6D6D" stroke-width="1.5" stroke-linecap="round" stroke-linejoin="round"/>
<path d="M7.755 6.35C7.68727 6.69879 7.51684 7.01937 7.26561 7.27061C7.01437 7.52184 6.69379 7.69227 6.345 7.76M4.735 7.265L1 11M11 1L7.265 4.735" stroke="#6D6D6D" stroke-width="1.5" stroke-linecap="round" stroke-linejoin="round"/>
</g>
<defs>
<clipPath id="clip0_871_6231">
<rect width="12" height="12" fill="white"/>
</clipPath>
</defs>
</svg>
