<svg width="12" height="12" viewBox="0 0 12 12" fill="none" xmlns="http://www.w3.org/2000/svg">
<g clip-path="url(#clip0_871_6219)">
<path d="M10.2951 11C10.2951 9.065 8.37008 7.5 6.00008 7.5C3.63008 7.5 1.70508 9.065 1.70508 11M6.00008 6C6.66312 6 7.299 5.73661 7.76785 5.26777C8.23669 4.79893 8.50008 4.16304 8.50008 3.5C8.50008 2.83696 8.23669 2.20107 7.76785 1.73223C7.299 1.26339 6.66312 1 6.00008 1C5.33704 1 4.70115 1.26339 4.23231 1.73223C3.76347 2.20107 3.50008 2.83696 3.50008 3.5C3.50008 4.16304 3.76347 4.79893 4.23231 5.26777C4.70115 5.73661 5.33704 6 6.00008 6V6Z" stroke="#6D6D6D" stroke-width="1.5" stroke-linecap="round" stroke-linejoin="round"/>
</g>
<defs>
<clipPath id="clip0_871_6219">
<rect width="12" height="12" fill="white"/>
</clipPath>
</defs>
</svg>
