<svg width="22" height="21" viewBox="0 0 22 21" fill="none" xmlns="http://www.w3.org/2000/svg">
<path d="M4.5835 8.66659H6.41683C8.25016 8.66659 9.16683 7.74992 9.16683 5.91659V4.08325C9.16683 2.24992 8.25016 1.33325 6.41683 1.33325H4.5835C2.75016 1.33325 1.8335 2.24992 1.8335 4.08325V5.91659C1.8335 7.74992 2.75016 8.66659 4.5835 8.66659ZM15.5835 8.66659H17.4168C19.2502 8.66659 20.1668 7.74992 20.1668 5.91659V4.08325C20.1668 2.24992 19.2502 1.33325 17.4168 1.33325H15.5835C13.7502 1.33325 12.8335 2.24992 12.8335 4.08325V5.91659C12.8335 7.74992 13.7502 8.66659 15.5835 8.66659ZM15.5835 19.6666H17.4168C19.2502 19.6666 20.1668 18.7499 20.1668 16.9166V15.0833C20.1668 13.2499 19.2502 12.3333 17.4168 12.3333H15.5835C13.7502 12.3333 12.8335 13.2499 12.8335 15.0833V16.9166C12.8335 18.7499 13.7502 19.6666 15.5835 19.6666ZM4.5835 19.6666H6.41683C8.25016 19.6666 9.16683 18.7499 9.16683 16.9166V15.0833C9.16683 13.2499 8.25016 12.3333 6.41683 12.3333H4.5835C2.75016 12.3333 1.8335 13.2499 1.8335 15.0833V16.9166C1.8335 18.7499 2.75016 19.6666 4.5835 19.6666Z" stroke="#392250" stroke-width="2.5" stroke-miterlimit="10" stroke-linecap="round" stroke-linejoin="round"/>
</svg>
